<svg id="Layer_1" data-name="Layer 1" xmlns="http://www.w3.org/2000/svg" viewBox="0 0 406 114"><path d="M51.36328,96.80664,36.35547,73.23633a18.48315,18.48315,0,0,1-2.11914.08789H24.791V96.80664h-8.5625V32.98047h17.0371A28.20513,28.20513,0,0,1,44.918,35.27637a18.29874,18.29874,0,0,1,8.0332,6.75293,19.16988,19.16988,0,0,1,2.91406,10.72656,22.94657,22.94657,0,0,1-2.60449,10.8584,16.94294,16.94294,0,0,1-7.98926,7.50293L61.33789,96.80664ZM43.99219,61.40625a12.52044,12.52044,0,0,0,3.04492-8.29687,13.0386,13.0386,0,0,0-1.2793-5.5625,10.9171,10.9171,0,0,0-4.06152-4.5459,12.63007,12.63007,0,0,0-7.01856-1.80957H24.791v23.835h9.26953Q40.94531,65.02637,43.99219,61.40625Z" fill="#ff0022"/><path d="M90.73438,87.44922,94.53125,93.54a25.49514,25.49514,0,0,1-6.3125,3.0459,21.26142,21.26142,0,0,1-6.57617,1.10351,21.62962,21.62962,0,0,1-10.63867-2.51562,17.65185,17.65185,0,0,1-7.01758-6.93067,20.05143,20.05143,0,0,1-2.47168-9.97461A18.67281,18.67281,0,0,1,64.207,68.4248a19.54019,19.54019,0,0,1,7.37109-7.06152,20.70372,20.70372,0,0,1,10.24024-2.60547,17.56293,17.56293,0,0,1,11.96191,4.19336,21.5496,21.5496,0,0,1,6.57715,11.69727L71.40234,84.80078A11.46,11.46,0,0,0,75.68359,89.082a12.10029,12.10029,0,0,0,6.13477,1.54492A14.89739,14.89739,0,0,0,90.73438,87.44922Zm-17.832-18.62695a12.74152,12.74152,0,0,0-3.26562,9.00488,17.40883,17.40883,0,0,0,.08789,2.03027L91,72a12.16793,12.16793,0,0,0-3.75195-4.85547A9.67826,9.67826,0,0,0,81.20117,65.291,10.81142,10.81142,0,0,0,72.90234,68.82227Z" fill="#ff0022"/><path d="M106.58008,96.18848a14.31088,14.31088,0,0,1-5.959-4.14844l3.53125-4.76758a17.53021,17.53021,0,0,0,4.63477,3.2666,11.17575,11.17575,0,0,0,4.81055,1.14746,8.93169,8.93169,0,0,0,4.76757-1.14746,3.86217,3.86217,0,0,0,1.85352-3.53125,4.062,4.062,0,0,0-1.14746-3.002,7.07979,7.07979,0,0,0-2.60449-1.67676q-1.45607-.53026-4.89844-1.58887-9.35889-3-9.3584-10.68164a10.5076,10.5076,0,0,1,3.39942-7.85742q3.397-3.26367,9.49023-3.26562a22.3896,22.3896,0,0,1,6.88477.9707,16.83315,16.83315,0,0,1,5.5625,3.08984l-3.26758,5.03125a10.03578,10.03578,0,0,0-3.57422-2.38281,12.43058,12.43058,0,0,0-4.10547-.97168,7.389,7.389,0,0,0-4.23731,1.19238,3.8747,3.8747,0,0,0-.61816,6.00293,7.29533,7.29533,0,0,0,2.38379,1.58887q1.23486.48633,4.85449,1.63281a18.6754,18.6754,0,0,1,7.01953,3.88477,8.45652,8.45652,0,0,1,2.51563,6.44434,11.40679,11.40679,0,0,1-3.708,8.73925q-3.70752,3.44238-10.50488,3.44336A21.285,21.285,0,0,1,106.58008,96.18848Z" fill="#ff0022"/><path d="M145.20117,44.19238V60.34766h9.97461v6.53222h-9.97461V96.80664h-8.29883V66.87988h-6.709V60.34766h6.709V44.19238Z" fill="#ff0022"/><path d="M196.04785,60.25977V96.80664h-8.21V90.80371a18.91,18.91,0,0,1-5.6504,4.72266,16.33566,16.33566,0,0,1-8.38573,2.16308,19.54815,19.54815,0,0,1-9.40137-2.251,16.35058,16.35058,0,0,1-6.62109-6.57715,20.76794,20.76794,0,0,1-2.42774-10.32813,20.92612,20.92612,0,0,1,2.51563-10.46093,17.7934,17.7934,0,0,1,6.79785-6.88672,18.90934,18.90934,0,0,1,9.48926-2.42774,15.69937,15.69937,0,0,1,8.12207,2.03125,16.54323,16.54323,0,0,1,5.56152,5.29688l.61816-5.82617ZM183.73242,88.376a11.19892,11.19892,0,0,0,4.10547-6.8418V74.2959a11.26325,11.26325,0,0,0-4.41406-6.3125,12.76965,12.76965,0,0,0-7.67969-2.42774,11.98557,11.98557,0,0,0-6.04687,1.58887,11.67846,11.67846,0,0,0-4.41407,4.459,12.87109,12.87109,0,0,0-1.63379,6.48828,12.68426,12.68426,0,0,0,1.67774,6.44433,12.82243,12.82243,0,0,0,4.502,4.63477,11.65055,11.65055,0,0,0,6.17969,1.7207A12.17006,12.17006,0,0,0,183.73242,88.376Z" fill="#ff0022"/><path d="M209.085,96.80664V73.62305h3.92481V96.80664Z" fill="#ff0022"/><path d="M217.544,96.80664V73.62305H221l12.09668,17.06347V73.62305h3.8877V96.80664h-3.45606L221.46875,79.77832V96.80664Z" fill="#ff0022"/><path d="M249.18848,96.80664,240.332,73.62305h4.06836l6.94727,18.97168,6.94824-18.97168h4.06836l-8.78418,23.18359Z" fill="#ff0022"/><path d="M265.67578,96.80664V73.62305h16.16406v3.05957H269.60059v7.0205h10.90722v3.02344H269.60059v7.05567h12.23925v3.02441Z" fill="#ff0022"/><path d="M285.47559,96.80664V73.62305h3.45605l12.09668,17.06347V73.62305h3.8877V96.80664H301.46L289.40039,79.77832V96.80664Z" fill="#ff0022"/><path d="M315.5,96.80664v-20.124h-7.416V73.62305h18.71973v3.05957h-7.37988v20.124Z" fill="#ff0022"/><path d="M339.83594,97.167q-5.50782,0-8.24414-2.89844-2.73633-2.89746-2.73633-8.98144,0-6.33691,2.73633-9.18066,2.73486-2.84327,8.24414-2.84375,5.543,0,8.26172,2.84375,2.71728,2.84472,2.71777,9.18066,0,6.08349-2.71777,8.98144Q345.37891,97.16748,339.83594,97.167Zm0-3.3125q3.63574,0,5.3457-1.998,1.70947-1.99806,1.71-6.56934,0-4.82373-1.71-6.75-1.71093-1.92627-5.3457-1.92676-3.60059,0-5.31055,1.92676-1.70947,1.92627-1.71,6.75,0,4.57177,1.71,6.56934Q336.23486,93.8545,339.83594,93.85449Z" fill="#ff0022"/><path d="M354.63086,96.80664V73.62305h10.65625q3.8877,0,5.66992,1.998a7.841,7.841,0,0,1,1.78223,5.418,7.04166,7.04166,0,0,1-1.22364,4.17578,6.392,6.392,0,0,1-3.52832,2.41211,4.00688,4.00688,0,0,1,1.00782,1.00782,8.00881,8.00881,0,0,1,.71972,1.43945l2.916,6.73242h-4.03125l-2.84473-6.48047a3.03588,3.03588,0,0,0-.95312-1.33105,3.38,3.38,0,0,0-1.89063-.39649h-4.35547v8.208Zm3.9248-11.376h5.6875a4.98954,4.98954,0,0,0,3.34766-1.04394,4.17007,4.17007,0,0,0,1.22461-3.34766q0-4.35644-4.21191-4.35644h-6.04786Z" fill="#ff0022"/><path d="M381.84766,96.80664V88.20312l-8.31641-14.58007h4.06836L383.791,84.89062l6.19238-11.26757h4.06836l-8.31641,14.58007v8.60352Z" fill="#ff0022"/><path d="M373.188,21.00432q-11.72971-5.20909-23.44845-10.44014a2.3537,2.3537,0,0,0-2.0487-.00091q-11.7448,5.25026-23.50425,10.46848a1.98766,1.98766,0,0,0-1.28044,1.97919q.01647,14.46528.00092,28.93056a1.98629,1.98629,0,0,0,1.27678,1.9801l3.28432,1.45695c6.37017,2.82611,12.958,5.74825,19.40867,8.68137a4.54,4.54,0,0,0,1.88042.46827,3.48994,3.48994,0,0,0,1.938-.62284,1.89921,1.89921,0,0,0,.97222-2.495,1.70537,1.70537,0,0,0-1.007-.90728,2.12994,2.12994,0,0,0-1.66457.21218.64157.64157,0,0,1-.67955.00732q-10.77488-4.82359-21.57078-9.60511c-.22591-.1006-.24969-.13719-.24877-.39327q.01782-10.51559.011-21.03209v-4.1349l4.20532,1.87127q8.40561,3.73842,16.80207,7.49513a2.69663,2.69663,0,0,0,2.39808.00274c2.26088-1.02892,4.53092-2.03772,6.801-3.04561l5.57538-2.48039q4.32011-1.922,8.63655-3.85411c-.02927.557-.022,1.11581-.01463,1.65725.00274.24328.0064.48657.0064.72893l-.00092,2.52429c-.00091,1.85206-.00274,3.70412.00549,5.55618a1.93851,1.93851,0,0,0,.68138,1.5411,1.76156,1.76156,0,0,0,1.49628.332,1.84564,1.84564,0,0,0,1.41122-1.96364V31.72157q-.00137-4.34891.00915-8.69782A2.034,2.034,0,0,0,373.188,21.00432Zm-4.91322,1.77615-7.12837,3.17914q-6.05556,2.69851-12.10745,5.40253a.69987.69987,0,0,1-.66491-.00549c-2.27552-1.02618-4.5547-2.04321-6.90064-3.0886l-1.03532-.46187,6.57413-2.92763q6.31209-2.81238,12.62144-5.63575a.76487.76487,0,0,1,.72436-.00732q3.44346,1.55985,6.90064,3.09226Zm-12.712-5.66411q-8.38092,3.7398-16.76366,7.47135l-2.48771,1.10758c-.25974.11524-.343.13627-.49114.06859-1.83468-.83777-3.67668-1.65633-5.51959-2.47581l-1.13868-.51218c.50943-.23139,1.00332-.45638,1.49994-.6768l4.58122-2.03955q6.53435-2.90706,13.06229-5.826a.87835.87835,0,0,1,.835.01006c1.78255.81216,3.57242,1.60695,5.3632,2.40173Z" fill="#ff0022"/><path d="M373.02792,40.96175a13.63411,13.63411,0,0,0-9.63986-3.96295h-.10793a13.83631,13.83631,0,0,0,.12073,27.67207h.09786a13.83975,13.83975,0,0,0,9.5292-23.70912Zm-2.538,2.56179a10.20573,10.20573,0,1,1-7.1613-2.88738A9.87752,9.87752,0,0,1,370.48991,43.52354Z" fill="#ff0022"/><path d="M357.38122,51.47923a1.23463,1.23463,0,0,1,.767-1.1847,1.24933,1.24933,0,0,1,1.44918.23016c.708.67677,1.40778,1.36367,2.08007,2.07564.27858.295.43453.30629.72847.00659q2.58363-2.63419,5.20805-5.22815a1.33685,1.33685,0,0,1,2.284.22714,1.25115,1.25115,0,0,1-.25242,1.50164q-3.32121,3.356-6.6724,6.68212a1.2633,1.2633,0,0,1-1.89837-.03c-1.10475-1.07638-2.18363-2.17944-3.27229-3.27238A1.30577,1.30577,0,0,1,357.38122,51.47923Z" fill="#ff0022"/></svg>