<svg id="Layer_1" data-name="Layer 1" xmlns="http://www.w3.org/2000/svg" viewBox="0 0 26.99928 29.56216"><g id="Group_957" data-name="Group 957"><path id="Path_154" data-name="Path 154" d="M26.99192,15.799c0,2.082.02,4.164-.006,6.246a8.01553,8.01553,0,0,1-1.36,4.606,6.676,6.676,0,0,1-4.266,2.683,11.30786,11.30786,0,0,1-2.4.225q-5.36.007-10.72095,0a9.15567,9.15567,0,0,1-4.553-1.011A6.60526,6.60526,0,0,1,.393,23.81a11.06562,11.06562,0,0,1-.19995-2.236c.006-3.96,0-7.92.007-11.88a8.22951,8.22951,0,0,1,1.191-4.465,6.60013,6.60013,0,0,1,4.448-2.942c.324-.069.653-.117.98206-.154.191-.021.251-.1.238-.287a7.02019,7.02019,0,0,1,0-.772A1.05,1.05,0,0,1,8.08494.00027L8.1052,0A1.076,1.076,0,0,1,9.14658,1.10953L9.14622,1.12c.00806.308-.139.731.06006.892s.595.044.905.044c2.533,0,5.06494-.005,7.6.009.30005,0,.369-.083.34-.355a4.87171,4.87171,0,0,1,0-.643,1.062,1.062,0,0,1,1.026-1.066,1.037,1.037,0,0,1,1.052,1,3.62862,3.62862,0,0,1,0,.739c-.04.32.111.4.38794.418a7.45293,7.45293,0,0,1,2.08.493,6.557,6.557,0,0,1,4.2,5.15,10.852,10.852,0,0,1,.2,2.268c-.009,1.91,0,3.82,0,5.731ZM13.625,11.816q-5.52192,0-11.045-.007c-.274,0-.326.072-.32495.333.01,3.134.006,6.268.007,9.4a9.7495,9.7495,0,0,0,.192,2.012,4.417,4.417,0,0,0,2.91,3.5,7.153,7.153,0,0,0,2.457.41H19.188a8.91922,8.91922,0,0,0,1.6-.137,4.484,4.484,0,0,0,3.855-3.385,9.03449,9.03449,0,0,0,.29-2.416q0-4.701.00806-9.4c0-.276-.074-.325-.334-.325Q19.115,11.82294,13.625,11.816Zm-.027-2.065q5.52192,0,11.044.006c.251,0,.311-.065.279-.3-.061-.456-.082-.916-.176-1.369a4.611,4.611,0,0,0-4.354-3.869c-.183-.025-.278.007-.261.227a4.83078,4.83078,0,0,1,0,.74,1.06193,1.06193,0,0,1-1.066,1.024,1.083,1.083,0,0,1-1.014-1.085c-.005-.247-.01-.494,0-.74.009-.171-.028-.24-.222-.239q-4.23395.01-8.468,0c-.163,0-.22705.036-.218.211a8.04153,8.04153,0,0,1,0,.837,1.037,1.037,0,0,1-2.012.331,1.83915,1.83915,0,0,1-.072-.666c0-.68,0-.695-.672-.571a4.486,4.486,0,0,0-3.652,2.822,8.30685,8.30685,0,0,0-.463,2.319c-.026.276.04505.334.31494.333Q8.09214,9.74293,13.598,9.751Z" style="fill:#ff0122"/><path id="Path_155" data-name="Path 155" d="M19.78,21.651a1.355,1.355,0,0,1-1.33753,1.37225c-.01611.00018-.03235.00012-.04846-.00025a1.379,1.379,0,0,1-1.376-1.363,1.40706,1.40706,0,0,1,1.382-1.4,1.38095,1.38095,0,0,1,1.38,1.382Z" style="fill:#ff0122"/><path id="Path_156" data-name="Path 156" d="M8.783,23.02293a1.373,1.373,0,1,1,.012-2.746h0a1.373,1.373,0,1,1-.012,2.746Z" style="fill:#ff0122"/><path id="Path_157" data-name="Path 157" d="M7.413,16.84692a1.341,1.341,0,0,1,1.30811-1.3731c.02331-.00055.04663-.00055.06994.00012A1.36291,1.36291,0,0,1,10.175,16.81567c.00025.01209.00025.02417.00013.03626a1.40008,1.40008,0,0,1-1.374,1.371,1.37192,1.37192,0,0,1-1.38794-1.35583Z" style="fill:#ff0122"/><path id="Path_158" data-name="Path 158" d="M19.77993,16.846a1.368,1.368,0,0,1-1.36084,1.37512c-.0094.00007-.0188,0-.0282-.00012a1.4,1.4,0,0,1-1.374-1.4,1.3849,1.3849,0,0,1,1.387-1.353,1.354,1.354,0,0,1,1.3761,1.33148Q19.78031,16.82274,19.77993,16.846Z" style="fill:#ff0122"/><path id="Path_159" data-name="Path 159" d="M13.584,15.46492a1.36205,1.36205,0,0,1,1.39075,1.3327c.00024.01239.00037.02484.00024.0373a1.38,1.38,0,1,1-1.391-1.37Z" style="fill:#ff0122"/><path id="Path_160" data-name="Path 160" d="M13.595,23.023a1.37029,1.37029,0,1,1,.02917-.00006C13.61437,23.023,13.60472,23.023,13.595,23.023Z" style="fill:#ff0122"/></g></svg>