<svg id="Layer_1" data-name="Layer 1" xmlns="http://www.w3.org/2000/svg" viewBox="0 0 26.99928 29.56216"><g id="Group_982" data-name="Group 982"><path id="Path_118" data-name="Path 118" d="M1.13319,4.79292c.06846-.02671.058-.0998.08471-.14973a.82967.82967,0,0,1,.75661-.492c.97709-.0058,1.95532-.00814,2.93241,0a.82854.82854,0,0,1,.82043.68348c.246,1.00376.49086,2.00752.7218,3.01709.04409.19265.123.239.3133.239q8.29822-.00807,16.59412,0a1.055,1.055,0,0,1,.832.27849,1.96377,1.96377,0,0,1,.2321.42355v.40846a6.508,6.508,0,0,0-.31447,1.143q-.9016,3.61122-1.79171,7.226a.90285.90285,0,0,1-.98559.81167l-.04253-.00517H7.98673a.88663.88663,0,0,1-.99215-.76663l-.00233-.02011q-1.381-5.75453-2.756-11.51031c-.03945-.16481-.0998-.19846-.25413-.19612-.5454.00928-1.092-.02089-1.63621.01041a1.10468,1.10468,0,0,1-1.2173-.64289ZM14.687,9.828H7.14421c-.14853,0-.21585.00927-.17176.19265q.7798,3.22248,1.54452,6.44851a.19032.19032,0,0,0,.202.17792l.022-.0027q5.91121-.0069,11.82244,0c.14622,0,.20306-.036.239-.18684q.78449-3.20973,1.591-6.41366c.05107-.20193,0-.21581-.17756-.21581q-3.76316.00934-7.5288,0Z" style="fill:#f02"/><path id="Path_119" data-name="Path 119" d="M9.03228,19.62674A2.89473,2.89473,0,1,1,6.13011,22.543L6.13,22.53015a2.89416,2.89416,0,0,1,2.88479-2.90341Zm1.16043,2.88365a1.16047,1.16047,0,0,0-2.32086.01275A1.17434,1.17434,0,0,0,9.0497,23.68357a1.16045,1.16045,0,0,0,1.1407-1.17318Z" style="fill:#f02"/><path id="Path_120" data-name="Path 120" d="M19.58287,19.62674a2.89178,2.89178,0,0,1,2.88836,2.8952l0,.014a2.89183,2.89183,0,0,1-2.90668,2.87685l-.01412-.00014a2.893,2.893,0,0,1,.02313-5.786ZM19.569,21.36739a1.15754,1.15754,0,0,0-.01045,2.315,1.15929,1.15929,0,1,0,.01277-2.31853Z" style="fill:#f02"/></g></svg>