<svg id="Layer_1" data-name="Layer 1" xmlns="http://www.w3.org/2000/svg" viewBox="0 0 50 50"><g id="delete-icon"><path id="Path_88" data-name="Path 88" d="M42.75546,9.44243H31.69188a4.01417,4.01417,0,0,0,.14455-1.05261V6.077A4.077,4.077,0,0,0,27.7594,2H22.18129a4.077,4.077,0,0,0-4.077,4.077h0V8.39352a4.05086,4.05086,0,0,0,.14455,1.05262H7.24454a1.5919,1.5919,0,1,0,0,3.18379H9.12l1.24164,28.20562A7.20893,7.20893,0,0,0,17.56312,48H32.43687a7.54993,7.54993,0,0,0,7.24631-7.84178q-.0114-.28847-.0448-.57543l1.23053-26.95287h1.88655a1.5919,1.5919,0,1,0,0-3.18379ZM21.2584,6.06962a.94142.94142,0,0,1,.93771-.93772h5.58554a.94142.94142,0,0,1,.93771.93772V8.38611a.94142.94142,0,0,1-.93771.93772H22.18129a.94142.94142,0,0,1-.93772-.93772ZM36.525,39.46789v.07043c0,3.232-1.59746,5.32237-4.077,5.32237H17.56683a4.077,4.077,0,0,1-4.077-4.077h0L12.24816,12.6151H37.72959Z" style="fill:#db001d"/><path id="Path_89" data-name="Path 89" d="M18.08573,39.87189a1.59376,1.59376,0,0,0,1.59-1.59375V20.30956a1.5919,1.5919,0,0,0-3.1838,0h0v17.976A1.59375,1.59375,0,0,0,18.08573,39.87189Z" style="fill:#db001d"/><path id="Path_90" data-name="Path 90" d="M24.96108,39.87189a1.59376,1.59376,0,0,0,1.59-1.59375V20.30956a1.5919,1.5919,0,0,0-3.18379,0h0v17.976a1.59,1.59,0,0,0,1.59373,1.58634Z" style="fill:#db001d"/><path id="Path_91" data-name="Path 91" d="M31.86239,39.87189a1.59,1.59,0,0,0,1.59-1.59V20.30956a1.5919,1.5919,0,0,0-3.18379,0h0v17.976A1.59374,1.59374,0,0,0,31.86239,39.87189Z" style="fill:#db001d"/></g></svg>