<?xml version="1.0" encoding="utf-8"?>
<!-- Generator: Adobe Illustrator 16.0.0, SVG Export Plug-In . SVG Version: 6.00 Build 0)  -->
<!DOCTYPE svg PUBLIC "-//W3C//DTD SVG 1.1//EN" "http://www.w3.org/Graphics/SVG/1.1/DTD/svg11.dtd">
<svg version="1.1" id="Capa_1" xmlns="http://www.w3.org/2000/svg" xmlns:xlink="http://www.w3.org/1999/xlink" x="0px" y="0px"
	 width="512px" height="512px" viewBox="0 0 512 512" enable-background="new 0 0 512 512" xml:space="preserve">
<path fill="#ff0022" d="M502,344.373h-16.546v-98.025c0-3.881-2.211-7.246-5.442-8.903l-56.177-82.771
	c-1.861-2.742-4.96-4.384-8.274-4.384h-14.736v-35.004c0-22.599-18.386-40.984-40.985-40.984H60.985
	C38.386,74.301,20,92.687,20,115.285v229.087H10c-5.523,0-10,4.478-10,10v46.241c0,5.522,4.477,10,10,10h56.273
	c7.413,15.978,23.606,27.086,42.345,27.086c18.739,0,34.932-11.108,42.345-27.086h58.615c7.413,15.978,23.606,27.086,42.344,27.086
	c18.738,0,34.932-11.108,42.346-27.086h91.526c7.413,15.978,23.606,27.086,42.345,27.086c18.739,0,34.933-11.108,42.346-27.086H502
	c5.523,0,10-4.478,10-10v-46.241C512,348.85,507.523,344.373,502,344.373L502,344.373z M400.823,344.373v-88.025h64.631v88.025
	H400.823z M381.489,390.613h-82.917c-0.088-9.745-3.176-18.785-8.383-26.241h99.683
	C384.664,371.828,381.576,380.869,381.489,390.613z M410.262,170.289l44.834,66.058h-54.272v-66.058H410.262z M186.627,250.392H40
	v-49.695h146.627c5.523,0,10-4.477,10-10V169.62l77.381,55.925l-77.381,55.925v-21.077
	C196.627,254.869,192.15,250.392,186.627,250.392z M40,270.393h136.627v30.643c0,3.756,2.104,7.195,5.449,8.904
	c1.436,0.733,2.996,1.096,4.55,1.096c2.066,0,4.121-0.641,5.858-1.895l104.454-75.491c2.602-1.88,4.143-4.895,4.143-8.105
	s-1.541-6.225-4.143-8.105l-104.454-75.49c-3.044-2.199-7.064-2.508-10.409-0.799c-3.344,1.709-5.449,5.148-5.449,8.904v30.643H40
	v-65.412c0-11.571,9.414-20.984,20.985-20.984h298.854c11.571,0,20.985,9.414,20.985,20.984v229.087H40V270.393z M205.273,390.613
	h-50.005c-0.087-9.745-3.175-18.785-8.383-26.241h66.771C208.448,371.828,205.36,380.869,205.273,390.613L205.273,390.613z
	 M20,364.373h50.352c-5.208,7.455-8.296,16.496-8.383,26.24H20V364.373z M108.618,417.699c-14.696,0-26.652-11.961-26.652-26.663
	s11.956-26.664,26.652-26.664c14.696,0,26.652,11.961,26.652,26.664S123.314,417.699,108.618,417.699L108.618,417.699z
	 M251.922,417.699c-14.696,0-26.652-11.961-26.652-26.663s11.956-26.664,26.652-26.664c14.696,0,26.652,11.961,26.652,26.664
	S266.619,417.699,251.922,417.699z M428.139,417.699c-14.695,0-26.651-11.961-26.651-26.663s11.956-26.664,26.651-26.664
	c14.696,0,26.652,11.961,26.652,26.664S442.835,417.699,428.139,417.699z M492,390.613h-17.212
	c-0.087-9.745-3.175-18.785-8.383-26.241H492V390.613z"/>
</svg>
