<svg id="Layer_1" data-name="Layer 1" xmlns="http://www.w3.org/2000/svg" viewBox="0 0 50 50"><g id="Group_920" data-name="Group 920"><path id="Path_92" data-name="Path 92" d="M2.99144,45.29337c.18373-.10292.19114-.30508.2535-.47048Q8.27687,32.27055,13.2904,19.71083a1.9843,1.9843,0,0,1,1.01448-1.10269q7.0426-3.51027,14.074-7.03521l.49625-.25729a6.33707,6.33707,0,0,1-.6396-.52563,1.2276,1.2276,0,0,1-.0433-1.73563c.01391-.01483.02849-.0293.0433-.04339q2.82639-2.86332,5.68622-5.68991A1.23127,1.23127,0,0,1,35.66266,3.283c.013.01241.0258.02511.03814.03808.38968.36756.75357.73513,1.12845,1.10269l9.6118,9.61184a1.36371,1.36371,0,0,1,0,2.27523l-5.17158,5.17165c-.85632.85643-1.47035.85643-2.33767,0-.092-.0919-.18755-.17643-.30511-.2867-.32709.64691-.6396,1.27178-.9557,1.89663q-3.14643,6.289-6.28545,12.58177a1.98144,1.98144,0,0,1-1.10265,1.01815Q17.4623,41.80147,4.64889,46.929c-.0184,0-.0258.04411-.04038.06616H3.92112a1.97823,1.97823,0,0,1-.94831-.94831Zm4.99883-5.14592a.8869.8869,0,0,0,.136-.0919q5.26008-5.25987,10.52331-10.516a.408.408,0,0,0,.08458-.52194,3.855,3.855,0,1,1,2.34148,2.27892.59546.59546,0,0,0-.73518.18011q-5.09821,5.12019-10.20721,10.222c-.09916.09924-.18373.21318-.27572.31979l-.07717.05881c.0442.05145.08458.02572.125,0a1.66319,1.66319,0,0,0,.16534-.04779q9.40966-3.76755,18.82292-7.52774a.73451.73451,0,0,0,.40808-.40065q3.62058-7.24836,7.24833-14.4931a.41168.41168,0,0,0-.09243-.57481l-.00314-.00227q-2.72006-2.69429-5.41432-5.41424a.511.511,0,0,0-.708-.14425l-.02714.01928q-7.16005,3.6058-14.33514,7.17854a.99625.99625,0,0,0-.52923.56605q-2.20552,5.576-4.4548,11.14459-1.54023,3.85944-3.06925,7.71886c-.033.04044-.05878.08086,0,.125Zm35.8928-24.96871a1.68281,1.68281,0,0,0-.13595-.1507l-.39686-.39329L35.08744,6.36453c-.20954-.20951-.3161-.272-.56243-.02205q-1.654,1.654-3.30818,3.30809c-.19854.19481-.20213.29773,0,.49621q4.32625,4.30419,8.63052,8.63043c.18374.18378.28312.23891.49984.02205,1.10265-1.13577,2.24209-2.25317,3.367-3.38159.06619-.06984.16535-.11763.17275-.24627ZM22.3622,26.35642a1.28648,1.28648,0,1,0,1.27539,1.29751v-.00735A1.30122,1.30122,0,0,0,22.3622,26.35642Z" style="fill:#125ac6"/><path id="Path_93" data-name="Path 93" d="M2.99148,46.06524a1.97793,1.97793,0,0,0,.9483.9483c-.3161,0-.75357.12126-.91151-.03309S2.99148,46.38134,2.99148,46.06524Z" style="fill:#125ac6"/><path id="Path_94" data-name="Path 94" d="M7.99047,40.15108l-.05878.07718c-.05137-.04409-.0258-.08458,0-.125Z" style="fill:#125ac6"/><path id="Path_95" data-name="Path 95" d="M9.91282,42.06238c-.04038.03309-.08077.05878-.125,0L9.865,42.0036Z" style="fill:#125ac6"/></g></svg>