<svg id="Layer_1" data-name="Layer 1" xmlns="http://www.w3.org/2000/svg" viewBox="0 0 26.99928 29.56216"><g id="Group_983" data-name="Group 983"><path id="Path_121" data-name="Path 121" d="M1.17005,10.98975a1.153,1.153,0,0,1,.785-.669,1.018,1.018,0,0,1,1.087.45c.251.373.5.746.759,1.151a10.60812,10.60812,0,0,1,.7-1.948,10.87,10.87,0,0,1,8.2-6.3,10.75,10.75,0,0,1,10.379,3.734,10.62509,10.62509,0,0,1,2.611,5.7,11.2,11.2,0,0,1-20.206,8.242,1.051,1.051,0,0,1,.1453-1.47922q.01995-.01638.0407-.03178a1.032,1.032,0,0,1,1.4407.23328q.02344.03249.0443.06672a8.965,8.965,0,0,0,5.82,3.743,9.154,9.154,0,1,0-7.201-11.404c-.013.039-.026.071-.039.116.084.058.135-.026.186-.058.437-.289.875-.592,1.318-.881a1.03622,1.03622,0,1,1,1.165,1.714h0q-1.659,1.129-3.325,2.244a1.034,1.034,0,0,1-1.511-.283c-.765-1.144-1.518-2.302-2.27-3.452-.045-.071-.09-.148-.135-.219C1.17005,11.43975,1.17005,11.21475,1.17005,10.98975Z" style="fill:#444c66"/><path id="Path_122" data-name="Path 122" d="M13.49605,12.16673v-2.527a1.009,1.009,0,0,1,.95563-1.05968l.04437-.00131a1.031,1.031,0,0,1,1.06665.99406q.00108.03045.00035.06094c.006,1.421.013,2.842-.006,4.264a1.031,1.031,0,0,0,.341.83c.817.791,1.614,1.608,2.405,2.424a1.026,1.026,0,0,1-.476,1.768.946.946,0,0,1-.926-.257c-1.035-1.035-2.071-2.084-3.1-3.125a1.032,1.032,0,0,1-.3-.785Z" style="fill:#444c66"/></g></svg>