<svg id="Layer_1" data-name="Layer 1" xmlns="http://www.w3.org/2000/svg" xmlns:xlink="http://www.w3.org/1999/xlink" viewBox="0 0 128.94894 79.34316"><defs><linearGradient id="linear-gradient" x1="-181.91563" y1="286.03368" x2="-181.91563" y2="286.95614" gradientTransform="matrix(116.13461, 0, 0, -49.52356, 21190.83947, 14202.71906)" gradientUnits="userSpaceOnUse"><stop offset="0" stop-color="#dedede" stop-opacity="0"/><stop offset="1" stop-color="#a9a9a9" stop-opacity="0.3"/></linearGradient><linearGradient id="linear-gradient-2" x1="-180.21276" y1="273.86848" x2="-180.21276" y2="274.86848" gradientTransform="matrix(55.974, 0, 0, -12.956, 10151.17982, 3623.88487)" gradientUnits="userSpaceOnUse"><stop offset="0" stop-color="#fff" stop-opacity="0"/><stop offset="1" stop-color="#96a1c5" stop-opacity="0.373"/></linearGradient><linearGradient id="linear-gradient-3" x1="-182.07308" y1="278.24415" x2="-182.07308" y2="279.4409" gradientTransform="matrix(128.94894, 0, 0, -17.77839, 23542.78872, 5026.43919)" gradientUnits="userSpaceOnUse"><stop offset="0" stop-color="#fff" stop-opacity="0"/><stop offset="1" stop-color="#919191" stop-opacity="0.15"/></linearGradient><linearGradient id="linear-gradient-4" x1="-179.25998" y1="279.51396" x2="-179.25998" y2="279.06446" gradientTransform="matrix(43.396, 0, 0, -18.196, 7843.07798, 5126.15331)" gradientUnits="userSpaceOnUse"><stop offset="0" stop-color="#f02"/><stop offset="1" stop-color="#cb0022"/></linearGradient><linearGradient id="linear-gradient-5" x1="-178.65432" y1="276.79478" x2="-178.65432" y2="277.84794" gradientTransform="matrix(37.972, 0, 0, -15.82708, 6847.77403, 4444.74614)" gradientUnits="userSpaceOnUse"><stop offset="0" stop-color="#ffc6ce"/><stop offset="1" stop-color="#ff98a6"/></linearGradient><linearGradient id="linear-gradient-6" x1="-179.26008" y1="277.86526" x2="-179.26008" y2="276.86526" gradientTransform="matrix(43.397, 0, 0, -15.912, 7843.26188, 4473.6293)" gradientUnits="userSpaceOnUse"><stop offset="0" stop-color="#ff8c9b"/><stop offset="1" stop-color="#fd6378"/></linearGradient></defs><path d="M26.074,15.228q1.989-6.288,3.7-7.831c3.157-2.848,7.522-1.298,8.45-1.076,3.26.782,2.2-4.364,4.997-5.41q2.796-1.0455,4.6,2.556Q49.4185.107,52.69.384c3.272.277,4.417,11.328,8.913,8.909,4.497-2.42,10.01-2.973,12.365.623.509.778.704-.429,4.166-4.55C81.596,1.244,85.048-.572,92.13,1.828q4.83,1.635,7.947,8.864,0,10.317,15.178,12.213c15.179,1.895,3.397,18.214-15.178,22.993-18.576,4.78-61.343,7.36-84.551-4.716Q-7.682,29.1085,26.073,15.228Z" transform="translate(-0.183 -0.36323)" style="fill-rule:evenodd;opacity:0.800000011920929;isolation:isolate;fill:url(#linear-gradient)"/><ellipse cx="63.951" cy="69.16677" rx="27.987" ry="6.478" style="fill:url(#linear-gradient-2)"/><path d="M111.384,77.613c-21.043,5.278-92.87-.759-100.515-3.516A23.06178,23.06178,0,0,1,.808,66.521a2.822,2.822,0,0,1,2.198-4.593H128.52Q132.4275,72.335,111.384,77.613Z" transform="translate(-0.183 -0.36323)" style="fill-rule:evenodd;opacity:0.675000011920929;isolation:isolate;fill:url(#linear-gradient-3)"/><path d="M85.61,52.169,76.039,40.977a2.434,2.434,0,0,0-1.837-.86H53.622a2.436,2.436,0,0,0-1.837.86L42.214,52.169v6.144H85.61Z" transform="translate(-0.183 -0.36323)" style="fill:url(#linear-gradient-4)"/><path d="M82.898,58.539l-8.377-9.748a2.136,2.136,0,0,0-1.622-.725H54.925a2.13617,2.13617,0,0,0-1.622.725l-8.377,9.748v5.354H82.898Z" transform="translate(-0.183 -0.36323)" style="fill:url(#linear-gradient-5)"/><path d="M85.61,65.354a2.79338,2.79338,0,0,1-.99,2.134l-.123.1a2.75794,2.75794,0,0,1-1.67.56H44.998a2.74259,2.74259,0,0,1-.971-.176l-.15-.06a2.802,2.802,0,0,1-1.663-2.559V52.236H52.743a2.11259,2.11259,0,0,1,2.1,2.118v.015a2.1051,2.1051,0,0,0,2.111,2.099H70.87a2.113,2.113,0,0,0,2.111-2.107,2.11606,2.11606,0,0,1,2.1-2.125h10.53Z" transform="translate(-0.183 -0.36323)" style="fill:url(#linear-gradient-6)"/></svg>