<svg id="Layer_1" data-name="Layer 1" xmlns="http://www.w3.org/2000/svg" viewBox="0 0 74.29412 68.47059"><g id="Group_955" data-name="Group 955"><path id="Path_123" data-name="Path 123" d="M73.38567,23.426v.285c-.153.041-.123.171-.146.282a5.986,5.986,0,0,1-4.321,4.789c-.52.162-.648.354-.647.861q.02389,9.894.01,19.788c0,2.847.013,5.694-.012,8.542,0,.5.131.657.632.63a6.40907,6.40907,0,0,1,1.911.081,3.56691,3.56691,0,0,1,2.572,2.64v4.559a2.372,2.372,0,0,1-2.4,1.228q-34.083-.021-68.166-.012a5.62237,5.62237,0,0,1-.779-.048,1.674,1.674,0,0,1-1.6045-1.74074q.00147-.03618.00452-.07227c-.013-1.092-.01-2.184,0-3.276a3.334,3.334,0,0,1,2.614-3.286,6.36923,6.36923,0,0,1,1.772-.07c.611.046.73-.179.728-.752q-.02693-14.1,0-28.2c0-.5-.106-.72-.645-.861a6.037,6.037,0,0,1-4.35-5.078c-.191-1.493-.043-2.988-.107-4.48a2.41168,2.41168,0,0,1,.293-1.224q1.268-2.5,2.524-5a19.56689,19.56689,0,0,0,1.93-4.014,20.78428,20.78428,0,0,0,.1-4.539v-.285A2.284,2.284,0,0,1,7.42333,1.74q.06217-.00422.12445-.005c1.658-.078,3.323-.046,4.984-.025a1.091,1.091,0,0,1,1.1792.995q.00321.0384.00379.077c-.211.856-.516,1.087-1.439,1.11-1.571.039-3.144-.086-4.713.068l-.054.026.018.054c-.018,1.065.007,2.133-.069,3.193-.051.718.158.906.891.9q25.227-.031,50.454-.012c.26,0,.52-.021.78-.032,2.111.016,4.222.028,6.333.051.337,0,.461-.129.458-.463q-.018-1.674,0-3.348c0-.339-.139-.456-.47-.453-2.065.018-4.13.025-6.195.035-.284-.008-.569-.023-.853-.023h-41.021a1.182,1.182,0,0,1-1.31183-1.036q-.00411-.03537-.00616-.071c.214-.893.508-1.086,1.682-1.086h47.847a2.383,2.383,0,0,1,2.483,2.592c.009,1.305.019,2.611-.007,3.916a2.93405,2.93405,0,0,0,.33,1.423q2.212,4.4,4.4,8.806v4.486C73.2467,23.098,73.16168,23.307,73.38567,23.426Zm-8.836,41.451c2.063.007,4.127,0,6.19.028.417,0,.527-.15.514-.539-.024-.735.011-1.471-.012-2.206a1.284,1.284,0,0,0-1.43-1.4c-1.755-.011-3.51.008-5.265.014-.237-.007-.474-.02-.711-.02H4.0017a1.30006,1.30006,0,0,0-1.422,1.416c-.019.617.044,1.239-.016,1.851-.068.7.125.9.871.9q30.2-.036,60.405-.02c.237,0,.474-.015.711-.023Zm-5-6.307c1.922.01,3.845-.005,5.767.044.63.016.826-.128.823-.8-.029-6.41-.017-12.82-.017-19.23q-.00009-4.523,0-9.045c0-.3.071-.605-.378-.708a5.69208,5.69208,0,0,1-3.329-2.151c-.162-.211-.276-.283-.467-.022a6.56408,6.56408,0,0,1-2.686,2.028,6.79992,6.79992,0,0,1-3.434.215,6.17689,6.17689,0,0,1-3.768-2.5,6.171,6.171,0,0,1-10.106.006,6.172,6.172,0,0,1-10.1,0,6.172,6.172,0,0,1-10.1,0,6.171,6.171,0,0,1-10.11908-.022,5.739,5.739,0,0,1-3.273,2.353c-.535.135-.684.365-.683.917q.031,14.1.015,28.2a3.04184,3.04184,0,0,1,0,.356c-.038.319.1.424.409.4a2.40032,2.40032,0,0,1,.64,0c.7.126.841-.166.838-.839-.026-7.5-.018-15-.016-22.5a2.107,2.107,0,0,1,2.378-2.421q5.8-.006,11.608,0a2.09995,2.09995,0,0,1,2.381,2.414v12.32q.005,5.447.022,10.894-.026.161.13.114c.118.006.237.016.355.016h32.613c.16906-.008.3341-.028.50006-.038ZM11.7077,46.754c0,3.724.009,7.448-.01,11.173,0,.5.072.7.645.7q5.408-.047,10.817-.013c.491,0,.639-.119.638-.627q-.02508-11.173,0-22.345c0-.561-.183-.656-.69-.653q-5.373.026-10.746-.012c-.541,0-.671.152-.668.679C11.71868,39.353,11.7077,43.053,11.7077,46.754ZM36.8717,17.73c1.138,0,2.277-.018,3.414.01.413.01.515-.113.485-.515-.165-2.173-.309-4.348-.448-6.523-.019-.292-.108-.419-.419-.418q-2.987.014-5.975,0c-.3,0-.409.107-.428.408-.138,2.175-.276,4.35-.452,6.523-.04.491.152.531.55.523C34.68969,17.715,35.78069,17.73,36.8717,17.73Zm-13.776,0c2.027,0,3.994.011,5.96-.006.584-.005,1.3.245,1.719-.117.377-.325.1-1.037.183-1.573.018-.117.038-.235.047-.353.118-1.607.225-3.214.355-4.82.034-.423-.073-.578-.533-.572-1.874.026-3.748.012-5.622.01-.289,0-.508-.024-.594.4-.475,2.325-.99695,4.646-1.51495,7.029Zm27.628,0c-.508-2.353-1.011-4.635-1.483-6.923-.084-.405-.242-.521-.649-.516q-2.77506.034-5.551,0c-.471-.007-.615.131-.579.6q.247,3.189.444,6.382c.027.446.262.467.606.465,1.494-.011,2.989,0,4.484,0Zm6.014,0c1.115,0,2.23-.008,3.345,0,.369,0,.569.016.383-.486-.807-2.166-1.568-4.349-2.339-6.528a.545.545,0,0,0-.6-.442q-2.846.033-5.693,0c-.444-.006-.49.124-.4.517.48,2.144.954,4.29,1.383,6.444.088.44.266.505.648.5,1.09-.019,2.181-.005,3.27106-.005Zm-34.24-7.442h-3.744c-.947,0-2.1-.306-2.783.125-.712.449-.75,1.7-1.088,2.6-.578,1.54-1.109,3.1-1.682,4.711h7.333c.232,0,.373-.025.434-.32.49006-2.347,1.00605-4.696,1.52906-7.116Zm-8.93.011h-6.262c-.321,0-.371.241-.473.444q-1.13506,2.252-2.266,4.506l-1.249,2.482c2.31,0,4.512-.031,6.713.019a1.029,1.029,0,0,0,1.18982-.83787l.00019-.00112c.736-2.194,1.54-4.366,2.34606-6.611Zm56.939,7.428c-1.233-2.455-2.413-4.8-3.584-7.148a.483.483,0,0,0-.507-.285c-1.9.006-3.8.01-5.7,0-.361,0-.449.069-.315.435q1.20593,3.295,2.371,6.605a.5.5,0,0,0,.554.4c2.35-.013,4.7-.007,7.18-.007Zm-53.8,2.145c-1.161,0-2.323.009-3.484-.006-.341,0-.528.05-.505.457.057,1.039-.058,2.082.086,3.122a3.952,3.952,0,0,0,7.868-.426c.022-.876-.024-1.755.02-2.629.024-.478-.17-.534-.572-.526-1.142.024-2.284.008-3.417.008Zm20.225,0c-1.186,0-2.372.01-3.557-.007-.329,0-.46.076-.45.431.025.9-.025,1.8.02,2.7a3.974,3.974,0,0,0,7.946-.04c.037-.852-.021-1.709.021-2.56.023-.466-.149-.546-.566-.536-1.141.03-2.28.012-3.419.012Zm20.181,0h-3.484c-.282,0-.5-.016-.485.39.031,1.018-.031,2.041.035,3.056a3.952,3.952,0,0,0,7.843.188c.146-1.04.036-2.082.092-3.121.022-.408-.114-.527-.518-.518-1.16.022-2.32593.005-3.48694.005Zm-50.437,0c-1.138,0-2.277.025-3.415-.011-.513-.017-.655.163-.63.648.049.97-.025,1.941.076,2.913a3.944,3.944,0,0,0,7.846-.223c.035-.924-.009-1.85.024-2.774.015-.434-.112-.575-.557-.562-1.119.033-2.23395.012-3.348.012Zm60.555,0c-1.162,0-2.324.013-3.486-.008-.373-.007-.5.112-.487.485.024.924-.008,1.85.018,2.774a3.941,3.941,0,0,0,7.853.23c.1-.972.02-1.943.072-2.913.026-.493-.187-.588-.627-.577-1.117.03-2.232.012-3.347.013Zm-36.442,1.84c0-.45-.017-.9.006-1.35.018-.354-.078-.5-.469-.5-2.345.016-4.69.012-7.036,0-.323,0-.48.082-.463.436a28.16049,28.16049,0,0,0,.1,3.261,4,4,0,0,0,3.148,3.26,4.048,4.048,0,0,0,4.135-1.878,5.687,5.687,0,0,0,.57507-3.225Zm16.245-1.84c-1.161,0-2.322.008-3.482-.005-.331,0-.529.036-.517.45.029.923-.029,1.85.024,2.771a3.938,3.938,0,0,0,3.658,3.761,3.877,3.877,0,0,0,4.2-3.451,29.79777,29.79777,0,0,0,.085-3.12c.019-.385-.2-.411-.489-.409-1.16193.011-2.322.007-3.483.007Z" style="fill:#0d0b0b"/><path id="Path_124" data-name="Path 124" d="M73.24767,18.43294l.13794.007v4.986c-.225-.119-.139-.329-.139-.507Q73.24364,20.67594,73.24767,18.43294Z" style="fill:#3c3b40"/><path id="Path_125" data-name="Path 125" d="M25.95869,58.473l-.022-10.894q-.00594-6.16,0-12.32a2.1,2.1,0,0,0-2.381-2.414q-5.79995-.006-11.608,0a2.107,2.107,0,0,0-2.378,2.421c0,7.5-.01,15,.016,22.5,0,.674-.137.965-.838.839a2.39941,2.39941,0,0,0-.64,0c-.3.029-.447-.076-.409-.4a3.03765,3.03765,0,0,0,0-.356q0-14.1-.015-28.2c0-.552.148-.782.683-.917a5.74007,5.74007,0,0,0,3.273-2.353,6.171,6.171,0,0,0,10.116.022,6.172,6.172,0,0,0,10.1,0,6.172,6.172,0,0,0,10.1,0,6.171,6.171,0,0,0,10.106-.006,6.17693,6.17693,0,0,0,3.768,2.5,6.79991,6.79991,0,0,0,3.434-.215c.379.067.291.367.292.61.006,1.171,0,2.342,0,3.514-.26.011-.519.03-.779.03h-10.224c-.939,0-1.233.23-1.464,1.093l-2.875-.024c-.211-.84-.52-1.069-1.484-1.07h-12.039c-1.852,0-2.561.717-2.562,2.594q.00009,4.274,0,8.548c0,2.541-.007,5.081,0,7.622a2.033,2.033,0,0,0,1.932,2.351c.046.1.1.107.154.009.118-.006.237-.018.355-.018h28.417c.188,0,.377.025.566.038q0,2.292-.006,4.585c-.165.01-.331.03-.5.03h-32.613c-.119,0-.237-.01-.355-.016Z" style="fill:#e3e4e5"/><path id="Path_126" data-name="Path 126" d="M64.54969,64.87792c-.237.008-.474.023-.711.023q-30.20006,0-60.405.02c-.745,0-.939-.207-.871-.9.06-.611,0-1.234.016-1.851a1.3,1.3,0,0,1,1.422-1.416h59.835c.237,0,.474.013.711.02Q64.54863,62.82493,64.54969,64.87792Z" style="fill:#777684"/><path id="Path_127" data-name="Path 127" d="M13.71069,2.779h2.8a1.182,1.182,0,0,0,1.247,1.11317q.03562-.002.071-.00617c.213.006.427,0,.641,0h40.38c.284,0,.569.015.853.023,0,.913.026,1.826,0,2.737-.013.48.148.982-.126,1.441-.26.011-.52.032-.78.032q-25.22709,0-50.454.012c-.733,0-.943-.187-.891-.9.076-1.061.051-2.129.069-3.193a.061.061,0,0,0,.03675-.078l-.00074-.002c1.569-.154,3.142-.029,4.713-.068C13.19567,3.866,13.50066,3.635,13.71069,2.779Z" style="fill:#ffb838"/><path id="Path_128" data-name="Path 128" d="M11.70768,46.74994c0-3.7.011-7.4-.012-11.1,0-.527.127-.683.668-.679q5.373.042,10.746.012c.507,0,.692.092.69.653q-.03,11.173,0,22.345c0,.508-.147.629-.638.627q-5.40894-.025-10.818.013c-.573.005-.647-.2-.645-.7C11.71567,54.20293,11.70768,50.47794,11.70768,46.74994Zm.129,0c0,3.676.008,7.353-.01,11.029,0,.509.112.719.667.7,1.327-.037,2.657-.033,3.984,0,.514.012.638-.178.637-.66q-.01794-11.029,0-22.057c0-.557-.2-.677-.705-.665-1.28.03-2.562.041-3.842,0-.609-.021-.751.193-.747.77C11.84769,39.496,11.83671,43.12494,11.83671,46.74994Zm10.11-.268h0a9.55181,9.55181,0,0,0-.009-1.131,1,1,0,0,0-1.05292-.94412l-.00207.00012a.982.982,0,0,0-1.04334.91654l-.00165.03447a16.41822,16.41822,0,0,0-.005,2.121,1.023,1.023,0,0,0,1.023.985,1.053,1.053,0,0,0,1.089-.993c.027-.321.002-.656.002-.986Z" style="fill:#16a2b2"/><path id="Path_129" data-name="Path 129" d="M59.55972,32.81094v-3.514c0-.242.087-.542-.292-.61a6.56382,6.56382,0,0,0,2.686-2.028c.192-.261.305-.189.467.022a5.692,5.692,0,0,0,3.329,2.151c.449.1.37805.407.37805.708v9.045c0,6.41-.012,12.82.017,19.23,0,.671-.193.815-.823.8-1.922-.049-3.844-.034-5.767-.044q0-2.292.006-4.584c.449-.012.9-.031,1.348-.035a2.07095,2.07095,0,0,0,2.348-2.361q.007-3.593,0-7.186v-8.894c0-1.993-.684-2.667-2.7-2.67C60.2217,32.84,59.89175,32.82194,59.55972,32.81094Z" style="fill:#a9acb3"/><path id="Path_130" data-name="Path 130" d="M36.87071,17.73c-1.091,0-2.181-.015-3.272.008-.4.008-.59-.032-.55-.523.175-2.172.313-4.348.452-6.523.019-.3.126-.41.428-.408q2.987.013,5.975,0c.311,0,.4.125.419.418.139,2.175.283,4.35.448,6.523.03.4-.072.525-.485.515C39.15171,17.712,38.00871,17.73,36.87071,17.73Z" style="fill:#fefefe"/><path id="Path_131" data-name="Path 131" d="M23.0957,17.728c.518-2.382,1.04-4.7,1.516-7.035.086-.419.305-.4.594-.4,1.874,0,3.749.016,5.622-.01.46-.006.567.149.533.572-.131,1.606-.238,3.213-.355,4.82-.009.118-.029.235-.047.353-.081.535.195,1.248-.183,1.573-.421.362-1.135.112-1.719.117C27.08971,17.738,25.12267,17.728,23.0957,17.728Z" style="fill:#e23a24"/><path id="Path_132" data-name="Path 132" d="M50.7237,17.728h-2.728c-1.495,0-2.989-.006-4.484,0-.344,0-.579-.019-.606-.465q-.19995-3.193-.444-6.382c-.036-.467.108-.6.579-.6q2.775.038,5.551,0c.407-.005.565.111.649.516C49.71272,13.093,50.21571,15.375,50.7237,17.728Z" style="fill:#e23a24"/><path id="Path_133" data-name="Path 133" d="M56.73766,17.73c-1.091,0-2.183-.014-3.274.007-.382.007-.561-.058-.648-.5-.429-2.154-.9-4.3-1.383-6.444-.088-.393-.042-.523.4-.517q2.846.036,5.693,0a.545.545,0,0,1,.6.442c.771,2.179,1.532,4.362,2.339,6.528.187.5-.013.49-.382.486C58.96771,17.723,57.85265,17.73,56.73766,17.73Z" style="fill:#fefefe"/><path id="Path_134" data-name="Path 134" d="M22.49668,10.289c-.523,2.42-1.039,4.769-1.53,7.124-.061.295-.2.32-.434.32h-7.333c.573-1.614,1.1-3.172,1.682-4.712.338-.9.376-2.154,1.088-2.6.682-.431,1.837-.12,2.783-.125C19.9827,10.284,21.21269,10.289,22.49668,10.289Z" style="fill:#fefefe"/><path id="Path_135" data-name="Path 135" d="M13.56669,10.3c-.805,2.25-1.61,4.417-2.347,6.607a1.029,1.029,0,0,1-1.1889.83919l-.0011-.00019c-2.2-.05-4.4-.019-6.713-.019l1.249-2.482q1.133-2.253,2.266-4.506c.1-.2.152-.445.473-.444C9.3657,10.304,11.42667,10.3,13.56669,10.3Z" style="fill:#e23a24"/><path id="Path_136" data-name="Path 136" d="M70.5057,17.72994c-2.48,0-4.83-.006-7.179.007a.5.5,0,0,1-.554-.4q-1.168-3.309-2.371-6.605c-.134-.366-.046-.438.31494-.435,1.9.013,3.80005.009,5.69995,0a.483.483,0,0,1,.507.285C68.09274,12.93,69.27267,15.27194,70.5057,17.72994Z" style="fill:#e23a24"/><path id="Path_137" data-name="Path 137" d="M16.70269,19.87194c1.137,0,2.275.016,3.412-.008.4-.008.6.047.573.526-.044.875,0,1.753-.02,2.63a3.952,3.952,0,0,1-7.868.426c-.144-1.04-.029-2.083-.086-3.122-.022-.406.165-.461.505-.457C14.3797,19.88494,15.54071,19.87194,16.70269,19.87194Z" style="fill:#ececec"/><path id="Path_138" data-name="Path 138" d="M36.92567,19.873c1.138,0,2.277.018,3.415-.009.416-.01.589.07.566.536-.042.852.016,1.708-.021,2.56a3.974,3.974,0,0,1-7.946.04c-.046-.9,0-1.8-.02-2.7-.01-.355.121-.435.45-.431C34.5547,19.883,35.74067,19.873,36.92567,19.873Z" style="fill:#ececec"/><path id="Path_139" data-name="Path 139" d="M57.1077,19.873c1.161,0,2.323.016,3.483-.009.4-.009.54.111.518.518-.056,1.039.054,2.081-.092,3.121a3.952,3.952,0,0,1-7.843-.188c-.066-1.015,0-2.038-.036-3.056-.013-.406.2-.392.485-.39C54.78568,19.877,55.94669,19.873,57.1077,19.873Z" style="fill:#ececec"/><path id="Path_140" data-name="Path 140" d="M6.67069,19.876c1.115,0,2.23.021,3.344-.01.445-.012.572.129.557.562-.032.924.011,1.85-.024,2.774a3.944,3.944,0,0,1-7.846.223c-.1-.971-.028-1.943-.076-2.913-.024-.486.118-.665.63-.648C4.39371,19.901,5.53269,19.876,6.67069,19.876Z" style="fill:#d9001e"/><path id="Path_141" data-name="Path 141" d="M67.22564,19.87094c1.115,0,2.23.017,3.344-.009.43995-.01.653.085.626.577-.052.97.028,1.941-.072,2.913a3.941,3.941,0,0,1-7.853-.23c-.027-.924.005-1.85-.01794-2.774-.01-.373.113-.491.48706-.485C64.90167,19.888,66.06365,19.87094,67.22564,19.87094Z" style="fill:#d9001e"/><path id="Path_142" data-name="Path 142" d="M30.78468,21.716a5.68609,5.68609,0,0,1-.577,3.234,4.048,4.048,0,0,1-4.135,1.878,4,4,0,0,1-3.148-3.26,28.16055,28.16055,0,0,1-.1-3.261c-.016-.355.14-.438.464-.436,2.345.009,4.691.013,7.036,0,.39,0,.487.144.469.5C30.76766,20.815,30.78468,21.264,30.78468,21.716Z" style="fill:#d9001e"/><path id="Path_143" data-name="Path 143" d="M47.02866,19.87594h3.482c.294,0,.509.024.489.409a29.79485,29.79485,0,0,1-.085,3.12,3.877,3.877,0,0,1-4.2,3.451,3.938,3.938,0,0,1-3.658-3.761c-.053-.921,0-1.848-.024-2.771-.013-.413.186-.453.517-.45C44.70768,19.884,45.86869,19.87594,47.02866,19.87594Z" style="fill:#d9001e"/><path id="Path_144" data-name="Path 144" d="M59.57961,8.091c.274-.459.113-.961.126-1.441.026-.912,0-1.825,0-2.737,2.06494-.01,4.13-.017,6.195-.035.331,0,.473.114.47.453q-.015,1.674,0,3.348c0,.335-.121.467-.458.463C63.80166,8.119,61.6907,8.107,59.57961,8.091Z" style="fill:#de871c"/><path id="Path_145" data-name="Path 145" d="M64.54965,64.87694V60.77c1.755-.006,3.51-.025,5.265-.014a1.285,1.285,0,0,1,1.43,1.4c.023.735-.012,1.471.012,2.206.01294.389-.1.544-.514.539C68.6777,64.882,66.61373,64.884,64.54965,64.87694Z" style="fill:#5c5d6d"/><path id="Path_146" data-name="Path 146" d="M7.55869,3.957a.061.061,0,0,1-.03405.07926l-.002.00074-.018-.054Z" style="fill:#de871c"/><path id="Path_147" data-name="Path 147" d="M25.95767,58.471l.13.114Q25.93167,58.63195,25.95767,58.471Z" style="fill:#a9acb3"/><path id="Path_148" data-name="Path 148" d="M44.21967,33.913l2.875.024a1.16,1.16,0,0,0,.937,1.056c.226.2.5.112.751.114,1.611.007,3.222.032,4.832-.01.642-.017.843.153.84.822-.028,5.282-.017,10.564-.017,15.845a.83486.83486,0,0,1-.14.023q-11.74806,0-23.5.017c-.523,0-.5-.258-.5-.613,0-5.173.013-10.347-.011-15.52,0-.59.194-.7.729-.693,3.939.021,7.879.014,11.819.009C43.77168,34.986,44.02467,34.778,44.21967,33.913Z" style="fill:#32acb2"/><path id="Path_149" data-name="Path 149" d="M44.2177,33.91294c-.193.865-.446,1.073-1.379,1.074-3.94,0-7.879.012-11.819-.009-.535,0-.731.1-.729.693.024,5.173.016,10.347.011,15.52,0,.355-.026.614.5.613q11.747-.028,23.5-.017a.832.832,0,0,0,.14-.023c2.016.009,4.033,0,6.049.039.512.009.625-.156.624-.642q-.02508-7.759,0-15.518c0-.471-.093-.66-.619-.658-4.152.02-8.3.01-12.457.009a1.16,1.16,0,0,1-.937-1.056c.231-.864.525-1.092,1.464-1.094q5.11194-.006,10.224,0c.26,0,.519-.019.778-.03.331.01.662.028.994.029,2.019,0,2.7.676,2.7,2.67v16.08a2.071,2.071,0,0,1-2.348,2.361c-.449,0-.9.023-1.348.035-.188-.013-.377-.038-.566-.038q-14.20807,0-28.417,0c-.118,0-.237.012-.355.018l-.154-.009a2.03275,2.03275,0,0,1-1.932-2.351c-.01-2.541,0-5.081,0-7.622q.00009-4.274,0-8.548c0-1.877.71-2.594,2.562-2.594h12.039C43.69768,32.84394,44.0067,33.074,44.2177,33.91294Z" style="fill:#070c0c"/><path id="Path_150" data-name="Path 150" d="M30.0667,53.957l.154.009C30.16369,54.06394,30.11266,54.052,30.0667,53.957Z" style="fill:#a9acb3"/><path id="Path_151" data-name="Path 151" d="M11.83666,46.75394c0-3.629.012-7.258-.012-10.886,0-.577.138-.791.747-.77,1.279.044,2.562.034,3.842,0,.508-.012.706.109.705.665q-.026,11.029,0,22.057c0,.483-.123.672-.637.66-1.327-.031-2.657-.036-3.984,0-.556.016-.67-.194-.667-.7C11.84465,54.106,11.83666,50.43,11.83666,46.75394Z" style="fill:#32acb2"/><path id="Path_152" data-name="Path 152" d="M21.94669,46.485c0,.33.025.663-.006.99a1.053,1.053,0,0,1-1.089.993,1.023,1.023,0,0,1-1.023-.985,16.41823,16.41823,0,0,1,.005-2.121.982.982,0,0,1,1.01056-.95261l.03442.00162a1,1,0,0,1,1.05487.94193l.00012.00207a9.53915,9.53915,0,0,1,.008,1.131Z" style="fill:#070c0c"/><path id="Path_153" data-name="Path 153" d="M48.02972,34.997c4.152,0,8.3.011,12.457-.009.526,0,.62.187.619.658q-.021,7.759,0,15.518c0,.486-.112.652-.624.642-2.016-.038-4.032-.03-6.049-.039,0-5.282-.011-10.564.017-15.845,0-.669-.2-.839-.84-.822-1.61.043-3.221.018-4.832.01C48.52868,35.106,48.25567,35.189,48.02972,34.997Z" style="fill:#16a2b2"/></g></svg>