<svg id="Layer_1" data-name="Layer 1" xmlns="http://www.w3.org/2000/svg" viewBox="0 0 50 50"><g id="Group_919" data-name="Group 919"><path id="Path_54" data-name="Path 54" d="M1.88235,35.29274A29.34144,29.34144,0,0,1,12.57509,23.56093a23.34126,23.34126,0,0,1,9.97124-3.59163,22.40438,22.40438,0,0,1,14.9,3.63482A30.05133,30.05133,0,0,1,47.845,34.81445a1.80935,1.80935,0,1,1-3.16037,1.75663,25.09481,25.09481,0,0,0-3.13685-4.59942,24.01668,24.01668,0,0,0-11.371-7.7441A18.21357,18.21357,0,0,0,15.908,25.85088,25.21231,25.21231,0,0,0,5.51329,36.2456a1.99976,1.99976,0,0,1-1.85858,1.31352,1.89775,1.89775,0,0,1-1.75662-1.36055Z" style="fill:#5112bc"/><path id="Path_55" data-name="Path 55" d="M25.00877,26.86249a8.89692,8.89692,0,1,1-8.8889,8.85379A8.87332,8.87332,0,0,1,25.00877,26.86249Zm0,14.11582a5.23069,5.23069,0,0,0,5.24642-5.21489v-.00011a5.24243,5.24243,0,0,0-5.2031-5.28155l-.03147-.00012a5.25637,5.25637,0,0,0-.07491,10.51205l.04344.0003Z" style="fill:#5112bc"/><path id="Path_56" data-name="Path 56" d="M40.344,20.22026a1.89,1.89,0,0,1,.596-1.2939c1.34882-1.21946,2.68986-2.45066,4.05436-3.65445a1.78025,1.78025,0,0,1,2.51539.10459l.02932.03266a1.7764,1.7764,0,0,1-.07239,2.511l-.04129.0377Q45.42571,19.8125,43.375,21.61622a1.71355,1.71355,0,0,1-2.0115.26266A1.79968,1.79968,0,0,1,40.344,20.22026Z" style="fill:#5112bc"/><path id="Path_57" data-name="Path 57" d="M3.72917,14.79743a1.88965,1.88965,0,0,1,1.27828.47445c1.341,1.20774,2.68591,2.41141,4.01517,3.63088A1.7096,1.7096,0,0,1,9.53626,20.824a1.74887,1.74887,0,0,1-1.56839,1.23514,1.71751,1.71751,0,0,1-1.36456-.45878c-1.35277-1.21552-2.70942-2.42709-4.05047-3.6584a1.7253,1.7253,0,0,1-.43132-2.01545A1.81532,1.81532,0,0,1,3.72917,14.79743Z" style="fill:#5112bc"/><path id="Path_58" data-name="Path 58" d="M23.18544,9.88043V7.1749a1.81935,1.81935,0,0,1,1.80748-1.83118h.01579a1.81937,1.81937,0,0,1,1.784,1.82723v5.415a1.82333,1.82333,0,0,1-1.81155,1.835h-.01568a1.82334,1.82334,0,0,1-1.784-1.83117Q23.18742,11.23122,23.18544,9.88043Z" style="fill:#5112bc"/></g></svg>